<?xml version="1.0" encoding="utf-8"?>
<svg viewBox="0 0 500 500" width="500" height="500" xmlns="http://www.w3.org/2000/svg">
  <path d="M 187.282 37.097 L 62.283 37.097 C 48.462 37.097 37.282 48.269 37.282 62.081 L 37.282 187.006 C 37.282 200.817 48.462 211.99 62.283 211.99 L 187.282 211.99 C 201.103 211.99 212.282 200.817 212.282 187.006 L 212.282 62.081 C 212.282 48.269 201.11 37.097 187.282 37.097 Z M 87.283 99.559 C 80.407 99.559 74.782 93.937 74.782 87.066 C 74.782 80.196 80.399 74.574 87.283 74.574 C 94.165 74.574 99.782 80.188 99.782 87.066 C 99.782 93.945 94.157 99.559 87.283 99.559 Z M 124.783 137.036 C 117.907 137.036 112.282 131.414 112.282 124.543 C 112.282 117.673 117.899 112.051 124.783 112.051 C 131.665 112.051 137.282 117.665 137.282 124.543 C 137.282 131.422 131.657 137.036 124.783 137.036 Z M 162.283 174.513 C 155.399 174.513 149.782 168.899 149.782 162.02 C 149.782 155.142 155.399 149.528 162.283 149.528 C 169.165 149.528 174.782 155.142 174.782 162.02 C 174.782 168.899 169.157 174.513 162.283 174.513 Z" style="fill: rgb(49, 68, 94);"/>
  <path d="M 275 351.185 L 275 349.203 C 275 325.312 292.268 304.934 315.811 301.01 C 331.089 298.416 347.256 303.495 358.4 314.656 L 362.5 318.749 L 366.295 314.656 C 377.745 303.495 393.604 298.416 409.19 301.01 C 432.74 304.934 450 325.312 450 349.203 L 450 351.185 C 450 365.371 444.122 378.94 433.731 388.612 L 371.967 446.274 C 369.405 448.667 366.021 450 362.5 450 C 358.981 450 355.596 448.667 353.032 446.274 L 291.266 388.612 C 280.89 378.94 275.001 365.371 275.001 351.185 L 275 351.185 Z" style="fill: rgb(49, 68, 94);"/>
  <path d="M 159.49 322 L 89.491 322 C 60.496 322 36.99 345.269 36.99 374.5 C 36.99 403.73 60.496 427 89.491 427 L 159.49 427 C 188.475 427 211.99 403.495 211.99 374.5 C 211.99 345.505 188.475 322 159.49 322 Z M 104.557 381.062 L 95.807 381.062 L 95.807 389.812 C 95.807 393.422 92.859 396.375 89.25 396.375 C 85.64 396.375 82.682 393.422 82.682 389.812 L 82.682 381.062 L 74.178 380.817 C 70.569 380.817 67.369 378.109 67.369 374.5 C 67.369 370.89 70.336 367.935 73.945 367.935 L 82.682 367.938 L 82.682 359.188 C 82.682 355.578 85.64 352.625 89.25 352.625 C 92.859 352.625 95.807 355.578 95.807 359.188 L 95.807 367.938 L 104.557 367.938 C 108.166 367.938 111.125 370.89 111.125 374.5 C 111.119 378.109 108.413 381.062 104.557 381.062 Z M 154.87 398.562 C 148.82 398.562 144.178 393.676 144.178 387.871 C 144.178 382.066 149.064 376.933 154.87 376.933 C 160.674 376.933 165.56 381.822 165.56 387.871 C 165.56 393.92 161.158 398.562 154.87 398.562 Z M 172.37 372.312 C 166.32 372.312 161.678 367.426 161.678 361.621 C 161.678 355.816 166.564 350.683 172.37 350.683 C 178.418 350.683 183.06 355.572 183.06 361.621 C 183.06 367.669 178.658 372.312 172.37 372.312 Z" style="fill: rgb(49, 68, 94);"/>
  <path d="M 360.861 60.841 C 335.202 61.605 315.426 83.974 315.426 109.646 L 315.426 174.1 C 315.426 177.579 319.65 179.32 322.091 176.847 L 328.182 172.33 C 329.8 171.109 332.089 171.353 333.432 172.88 L 343.93 184.674 C 345.456 186.201 347.927 186.201 349.452 184.674 L 359.37 173.49 C 360.926 171.72 363.671 171.72 365.229 173.49 L 375.149 184.674 C 376.675 186.201 379.148 186.201 380.672 184.674 L 391.17 172.88 C 392.513 171.353 394.803 171.109 396.419 172.33 L 402.51 176.847 C 404.952 179.32 409.175 177.58 409.175 174.1 L 409.175 107.692 C 409.178 81.319 387.425 60.048 360.861 60.841 Z M 346.677 115.504 C 342.374 115.504 339.083 111.993 339.083 107.689 C 339.083 103.385 342.594 99.874 346.677 99.874 C 350.759 99.874 354.49 103.385 354.49 107.689 C 354.49 111.993 350.973 115.504 346.677 115.504 Z M 377.927 115.504 C 373.625 115.504 370.115 111.993 370.115 107.689 C 370.115 103.385 373.625 99.874 377.927 99.874 C 382.23 99.874 385.74 103.385 385.74 107.689 C 385.74 111.993 382.224 115.504 377.927 115.504 Z" style="fill: rgb(49, 68, 94);"/>
</svg>